<svg xmlns="http://www.w3.org/2000/svg" xmlns:xlink="http://www.w3.org/1999/xlink" width="283" height="283" viewBox="0 0 283 283">
  <defs>
    <linearGradient id="linear-gradient" x1="0.5" x2="0.5" y2="1" gradientUnits="objectBoundingBox">
      <stop offset="0" stop-color="#ff006a"/>
      <stop offset="1" stop-color="#ff3636"/>
    </linearGradient>
    <filter id="Circle" x="0" y="0" width="283" height="283" filterUnits="userSpaceOnUse">
      <feOffset dx="3" dy="3" input="SourceAlpha"/>
      <feGaussianBlur stdDeviation="5.5" result="blur"/>
      <feFlood flood-opacity="0.302"/>
      <feComposite operator="in" in2="blur"/>
      <feComposite in="SourceGraphic"/>
    </filter>
  </defs>
  <g id="Group_2" data-name="Group 2" transform="translate(-196.5 -1300.5)">
    <g transform="matrix(1, 0, 0, 1, 196.5, 1300.5)" filter="url(#Circle)">
      <path id="Circle-2" data-name="Circle" d="M125,0A125,125,0,1,1,0,125,125,125,0,0,1,125,0Z" transform="translate(13.5 13.5)" fill="url(#linear-gradient)"/>
    </g>
    <path id="Icon_awesome-server" data-name="Icon awesome-server" d="M117.188,39.063H7.813A7.813,7.813,0,0,1,0,31.25V15.625A7.813,7.813,0,0,1,7.813,7.813H117.188A7.813,7.813,0,0,1,125,15.625V31.25A7.813,7.813,0,0,1,117.188,39.063ZM105.469,17.578a5.859,5.859,0,1,0,5.859,5.859A5.859,5.859,0,0,0,105.469,17.578Zm-15.625,0A5.859,5.859,0,1,0,95.7,23.438,5.859,5.859,0,0,0,89.844,17.578Zm27.344,60.547H7.813A7.813,7.813,0,0,1,0,70.313V54.688a7.813,7.813,0,0,1,7.813-7.812H117.188A7.813,7.813,0,0,1,125,54.688V70.313A7.813,7.813,0,0,1,117.188,78.125ZM105.469,56.641a5.859,5.859,0,1,0,5.859,5.859A5.859,5.859,0,0,0,105.469,56.641Zm-15.625,0A5.859,5.859,0,1,0,95.7,62.5,5.859,5.859,0,0,0,89.844,56.641Zm27.344,60.547H7.813A7.813,7.813,0,0,1,0,109.375V93.75a7.813,7.813,0,0,1,7.813-7.812H117.188A7.813,7.813,0,0,1,125,93.75v15.625A7.813,7.813,0,0,1,117.188,117.188ZM105.469,95.7a5.859,5.859,0,1,0,5.859,5.859A5.859,5.859,0,0,0,105.469,95.7Zm-15.625,0a5.859,5.859,0,1,0,5.859,5.859A5.859,5.859,0,0,0,89.844,95.7Z" transform="translate(272.5 1377)" fill="#160536"/>
  </g>
</svg>
