<svg xmlns="http://www.w3.org/2000/svg" xmlns:xlink="http://www.w3.org/1999/xlink" width="283" height="283" viewBox="0 0 283 283"><defs><linearGradient id="a" x1="0.5" x2="0.5" y2="1" gradientUnits="objectBoundingBox"><stop offset="0" stop-color="#ff006a"/><stop offset="1" stop-color="#ff3636"/></linearGradient><filter id="b" x="0" y="0" width="283" height="283" filterUnits="userSpaceOnUse"><feOffset dx="3" dy="3" input="SourceAlpha"/><feGaussianBlur stdDeviation="5.5" result="c"/><feFlood flood-opacity="0.302"/><feComposite operator="in" in2="c"/><feComposite in="SourceGraphic"/></filter></defs><g transform="translate(-196.5 -1300.5)"><g transform="matrix(1, 0, 0, 1, 196.5, 1300.5)" filter="url(#b)"><path d="M125,0A125,125,0,1,1,0,125,125,125,0,0,1,125,0Z" transform="translate(13.5 13.5)" fill="url(#a)"/></g><path d="M114.583,0H10.417A10.419,10.419,0,0,0,0,10.417V79.861A10.419,10.419,0,0,0,10.417,90.278H52.083l-3.472,10.417H32.986a5.208,5.208,0,1,0,0,10.417H92.014a5.208,5.208,0,0,0,0-10.417H76.389L72.917,90.278h41.667A10.419,10.419,0,0,0,125,79.861V10.417A10.419,10.419,0,0,0,114.583,0Zm-3.472,76.389H13.889v-62.5h97.222Z" transform="translate(273 1383)" fill="#160536"/></g></svg>