<svg xmlns="http://www.w3.org/2000/svg" xmlns:xlink="http://www.w3.org/1999/xlink" width="50" height="55" viewBox="0 0 50 55"><defs><linearGradient id="a" x1="0.5" x2="0.5" y2="1" gradientUnits="objectBoundingBox"><stop offset="0" stop-color="#ff006a"/><stop offset="1" stop-color="#ff3636"/></linearGradient></defs><g transform="translate(-1263 -205)"><path d="M16.557,39.424c0,.2-.23.359-.519.359-.329.03-.559-.13-.559-.359,0-.2.23-.359.519-.359C16.3,39.035,16.557,39.194,16.557,39.424Zm-3.1-.449c-.07.2.13.429.429.489a.468.468,0,0,0,.619-.2c.06-.2-.13-.429-.429-.519A.512.512,0,0,0,13.453,38.975Zm4.411-.17c-.289.07-.489.259-.459.489.03.2.289.329.589.259s.489-.259.459-.459S18.153,38.775,17.864,38.805ZM24.431.563A23.931,23.931,0,0,0,0,24.913,25.02,25.02,0,0,0,16.916,48.785c1.277.23,1.727-.559,1.727-1.208,0-.619-.03-4.032-.03-6.128,0,0-6.986,1.5-8.453-2.974,0,0-1.138-2.9-2.774-3.653,0,0-2.285-1.567.16-1.537A5.268,5.268,0,0,1,11.4,35.861c2.186,3.852,5.848,2.744,7.275,2.086a5.547,5.547,0,0,1,1.6-3.363C14.69,33.965,9.062,33.157,9.062,23.556a7.564,7.564,0,0,1,2.355-5.878,9.429,9.429,0,0,1,.259-6.776c2.086-.649,6.886,2.695,6.886,2.695a23.576,23.576,0,0,1,12.535,0s4.8-3.353,6.886-2.695a9.425,9.425,0,0,1,.259,6.776c1.6,1.766,2.575,3.144,2.575,5.878,0,9.631-5.878,10.4-11.457,11.028a5.9,5.9,0,0,1,1.7,4.631c0,3.363-.03,7.525-.03,8.343,0,.649.459,1.437,1.727,1.208A24.79,24.79,0,0,0,49.5,24.913C49.5,11.071,38.273.563,24.431.563ZM9.7,34.983c-.13.1-.1.329.07.519.16.16.389.23.519.1.13-.1.1-.329-.07-.519C10.06,34.923,9.83,34.853,9.7,34.983Zm-1.078-.808c-.07.13.03.289.23.389a.3.3,0,0,0,.429-.07c.07-.13-.03-.289-.23-.389C8.852,34.045,8.692,34.075,8.623,34.175Zm3.233,3.553c-.16.13-.1.429.13.619.23.23.519.259.649.1.13-.13.07-.429-.13-.619C12.285,37.6,11.986,37.568,11.856,37.727ZM10.718,36.26c-.16.1-.16.359,0,.589s.429.329.559.23a.455.455,0,0,0,0-.619C11.138,36.23,10.878,36.131,10.718,36.26Z" transform="translate(1263 204.438)" fill="url(#a)"/><line x2="49.5" transform="translate(1263.5 258.5)" fill="none" stroke="#ff3636" stroke-width="3"/></g></svg>