<svg xmlns="http://www.w3.org/2000/svg" xmlns:xlink="http://www.w3.org/1999/xlink" width="283" height="283" viewBox="0 0 283 283">
  <defs>
    <linearGradient id="linear-gradient" x1="0.5" x2="0.5" y2="1" gradientUnits="objectBoundingBox">
      <stop offset="0" stop-color="#ff006a"/>
      <stop offset="1" stop-color="#ff3636"/>
    </linearGradient>
    <filter id="Circle" x="0" y="0" width="283" height="283" filterUnits="userSpaceOnUse">
      <feOffset dx="3" dy="3" input="SourceAlpha"/>
      <feGaussianBlur stdDeviation="5.5" result="blur"/>
      <feFlood flood-opacity="0.302"/>
      <feComposite operator="in" in2="blur"/>
      <feComposite in="SourceGraphic"/>
    </filter>
  </defs>
  <g id="tools-icon" transform="translate(-196.5 -1300.5)">
    <g transform="matrix(1, 0, 0, 1, 196.5, 1300.5)" filter="url(#Circle)">
      <path id="Circle-2" data-name="Circle" d="M125,0A125,125,0,1,1,0,125,125,125,0,0,1,125,0Z" transform="translate(13.5 13.5)" fill="url(#linear-gradient)"/>
    </g>
    <path id="Icon_awesome-toolbox" data-name="Icon awesome-toolbox" d="M122.712,46.837,111.665,35.79A7.813,7.813,0,0,0,106.14,33.5H93.75V13.969A11.719,11.719,0,0,0,82.031,2.25H42.969A11.719,11.719,0,0,0,31.25,13.969V33.5H18.86a7.817,7.817,0,0,0-5.525,2.288L2.288,46.837A7.813,7.813,0,0,0,0,52.362v20.2H31.25V68.656a3.905,3.905,0,0,1,3.906-3.906h7.813a3.905,3.905,0,0,1,3.906,3.906v3.906h31.25V68.656a3.905,3.905,0,0,1,3.906-3.906h7.813a3.905,3.905,0,0,1,3.906,3.906v3.906H125V52.36A7.811,7.811,0,0,0,122.712,46.837ZM78.125,33.5H46.875V17.875h31.25ZM93.75,84.281a3.905,3.905,0,0,1-3.906,3.906H82.031a3.905,3.905,0,0,1-3.906-3.906V80.375H46.875v3.906a3.905,3.905,0,0,1-3.906,3.906H35.156a3.905,3.905,0,0,1-3.906-3.906V80.375H0v23.438a7.813,7.813,0,0,0,7.813,7.813H117.188A7.813,7.813,0,0,0,125,103.813V80.375H93.75Z" transform="translate(273 1382)" fill="#160536"/>
  </g>
</svg>
